REM DIRINDEX 1\2\3,1\2\4,1\2\5,1\2\6
REM DIRNAME cjc157,folder01,folder02,folder03,folder04,folder05
TITLE ""
FILE "167 167.mp3" MP3
  TRACK 01 AUDIO
    TITLE "0:"
    INDEX 01 00:00:00
  TRACK 02 AUDIO
    TITLE "3:cjc157_6095"
    INDEX 01 00:00:11
  TRACK 03 AUDIO
    TITLE "0:"
    INDEX 01 00:01:52
  TRACK 04 AUDIO
    TITLE "4:cjc157_6096"
    INDEX 01 00:02:24
  TRACK 05 AUDIO
    TITLE "0:"
    INDEX 01 00:04:01
  TRACK 06 AUDIO
    TITLE "5:cjc157_6097"
    INDEX 01 00:04:52
  TRACK 07 AUDIO
    TITLE "0:"
    INDEX 01 00:07:68
  TRACK 08 AUDIO
    TITLE "3:cjc157_6098"
    INDEX 01 00:08:40
  TRACK 09 AUDIO
    TITLE "0:"
    INDEX 01 00:10:10
  TRACK 10 AUDIO
    TITLE "4:cjc157_6099"
    INDEX 01 00:10:57
  TRACK 11 AUDIO
    TITLE "0:"
    INDEX 01 00:12:22
  TRACK 12 AUDIO
    TITLE "5:cjc157_6100"
    INDEX 01 00:12:73
  TRACK 13 AUDIO
    TITLE "0:"
    INDEX 01 00:15:68
  TRACK 14 AUDIO
    TITLE "3:cjc157_6101"
    INDEX 01 00:16:40
  TRACK 15 AUDIO
    TITLE "0:"
    INDEX 01 00:17:72
  TRACK 16 AUDIO
    TITLE "4:cjc157_6102"
    INDEX 01 00:18:46
  TRACK 17 AUDIO
    TITLE "0:"
    INDEX 01 00:20:14
  TRACK 18 AUDIO
    TITLE "5:cjc157_6103"
    INDEX 01 00:20:59
  TRACK 19 AUDIO
    TITLE "0:"
    INDEX 01 00:24:10
  TRACK 20 AUDIO
    TITLE "3:cjc157_6104"
    INDEX 01 00:24:55
  TRACK 21 AUDIO
    TITLE "0:"
    INDEX 01 00:26:03
  TRACK 22 AUDIO
    TITLE "4:cjc157_6105"
    INDEX 01 00:26:48
  TRACK 23 AUDIO
    TITLE "0:"
    INDEX 01 00:27:65
  TRACK 24 AUDIO
    TITLE "5:cjc157_6106"
    INDEX 01 00:28:39
  TRACK 25 AUDIO
    TITLE "0:"
    INDEX 01 00:31:61
  TRACK 26 AUDIO
    TITLE "3:cjc157_6107"
    INDEX 01 00:32:27
  TRACK 27 AUDIO
    TITLE "0:"
    INDEX 01 00:33:40
  TRACK 28 AUDIO
    TITLE "4:cjc157_6108"
    INDEX 01 00:34:08
  TRACK 29 AUDIO
    TITLE "0:"
    INDEX 01 00:35:45
  TRACK 30 AUDIO
    TITLE "5:cjc157_6109"
    INDEX 01 00:36:13
  TRACK 31 AUDIO
    TITLE "0:"
    INDEX 01 00:39:37
  TRACK 32 AUDIO
    TITLE "3:cjc157_6110"
    INDEX 01 00:40:05
  TRACK 33 AUDIO
    TITLE "0:"
    INDEX 01 00:41:22
  TRACK 34 AUDIO
    TITLE "4:cjc157_6111"
    INDEX 01 00:41:67
  TRACK 35 AUDIO
    TITLE "0:"
    INDEX 01 00:43:21
  TRACK 36 AUDIO
    TITLE "5:cjc157_6112"
    INDEX 01 00:43:66
  TRACK 37 AUDIO
    TITLE "0:"
    INDEX 01 00:46:56
  TRACK 38 AUDIO
    TITLE "3:cjc157_6113"
    INDEX 01 00:47:27
  TRACK 39 AUDIO
    TITLE "0:"
    INDEX 01 00:49:08
  TRACK 40 AUDIO
    TITLE "4:cjc157_6114"
    INDEX 01 00:49:53
  TRACK 41 AUDIO
    TITLE "0:"
    INDEX 01 00:51:48
  TRACK 42 AUDIO
    TITLE "5:cjc157_6115"
    INDEX 01 00:52:20
  TRACK 43 AUDIO
    TITLE "0:"
    INDEX 01 00:56:24
  TRACK 44 AUDIO
    TITLE "3:cjc157_6116"
    INDEX 01 00:56:65
  TRACK 45 AUDIO
    TITLE "0:"
    INDEX 01 00:58:09
  TRACK 46 AUDIO
    TITLE "4:cjc157_6117"
    INDEX 01 00:58:56
  TRACK 47 AUDIO
    TITLE "0:"
    INDEX 01 01:00:06
  TRACK 48 AUDIO
    TITLE "5:cjc157_6118"
    INDEX 01 01:00:47
  TRACK 49 AUDIO
    TITLE "0:"
    INDEX 01 01:04:23
  TRACK 50 AUDIO
    TITLE "3:cjc157_6119"
    INDEX 01 01:04:72
  TRACK 51 AUDIO
    TITLE "0:"
    INDEX 01 01:06:42
  TRACK 52 AUDIO
    TITLE "4:cjc157_6120"
    INDEX 01 01:07:12
  TRACK 53 AUDIO
    TITLE "0:"
    INDEX 01 01:09:09
  TRACK 54 AUDIO
    TITLE "5:cjc157_6121"
    INDEX 01 01:09:50
  TRACK 55 AUDIO
    TITLE "0:"
    INDEX 01 01:13:24
  TRACK 56 AUDIO
    TITLE "3:cjc157_6122"
    INDEX 01 01:13:67
  TRACK 57 AUDIO
    TITLE "0:"
    INDEX 01 01:15:50
  TRACK 58 AUDIO
    TITLE "4:cjc157_6123"
    INDEX 01 01:16:20
  TRACK 59 AUDIO
    TITLE "0:"
    INDEX 01 01:17:41
  TRACK 60 AUDIO
    TITLE "5:cjc157_6124"
    INDEX 01 01:18:23
  TRACK 61 AUDIO
    TITLE "0:"
    INDEX 01 01:21:00
